<?xml version="1.0" encoding="UTF-8" standalone="no"?>
<!DOCTYPE svg PUBLIC "-//W3C//DTD SVG 1.1//EN" "http://www.w3.org/Graphics/SVG/1.1/DTD/svg11.dtd">
<svg version="1.1" xmlns="http://www.w3.org/2000/svg" xmlns:xlink="http://www.w3.org/1999/xlink" preserveAspectRatio="xMidYMid meet" viewBox="0 0 640 640" width="640" height="640"><defs><path d="M78.11 60.43L567.97 60.43L567.97 571.24L78.11 571.24L78.11 60.43Z" id="c1bUa7TR5A"></path><path d="M174.17 143.76L92.41 143.76L92.41 72.81L174.17 72.81L174.17 143.76Z" id="b1mfonXHs6"></path><path d="M463.24 487.05L545 487.05L545 558L463.24 558L463.24 487.05Z" id="cFUtii1oc"></path><path d="M345 78L426.76 78L426.76 148.95L345 148.95L345 78Z" id="b40OvUg8Z5"></path><path d="M463.24 78L545 78L545 148.95L463.24 148.95L463.24 78Z" id="b9uMpiodc"></path><path d="M92.41 180.11L174.17 180.11L174.17 251.06L92.41 251.06L92.41 180.11Z" id="b2xXRX7Vmy"></path><path d="M344.73 485.79L426.49 485.79L426.49 556.73L344.73 556.73L344.73 485.79Z" id="a1DamJavWs"></path><path d="M344.73 180.11L426.49 180.11L426.49 251.06L344.73 251.06L344.73 180.11Z" id="a1Dywzjb8X"></path><path d="M463.24 179.44L545 179.44L545 250.38L463.24 250.38L463.24 179.44Z" id="db7IET3LHl"></path><path d="M92.41 288.49L174.17 288.49L174.17 359.44L92.41 359.44L92.41 288.49Z" id="anwqaZnL"></path><path d="M92.41 485.79L174.17 485.79L174.17 556.73L92.41 556.73L92.41 485.79Z" id="a534TISehJ"></path><path d="M217.8 485.79L299.56 485.79L299.56 556.73L217.8 556.73L217.8 485.79Z" id="b1h3ix9PH5"></path><path d="M92.41 385.38L174.17 385.38L174.17 456.33L92.41 456.33L92.41 385.38Z" id="e8KqwZhzn"></path><path d="M344.73 288.49L426.49 288.49L426.49 359.44L344.73 359.44L344.73 288.49Z" id="a4hrUuQ9Rr"></path><path d="M464.44 288.49L546.19 288.49L546.19 359.44L464.44 359.44L464.44 288.49Z" id="f2wBijP9TO"></path><path d="M463.24 384.71L545 384.71L545 455.65L463.24 455.65L463.24 384.71Z" id="b1mbESvAL9"></path><path d="M205 54.9L306.45 54.9L306.45 68L205 68L205 54.9Z" id="bUtqvjvLy"></path></defs><g><g><g><use xlink:href="#c1bUa7TR5A" opacity="1" fill="#ffffff" fill-opacity="1"></use><g><use xlink:href="#c1bUa7TR5A" opacity="1" fill-opacity="0" stroke="#000000" stroke-width="5" stroke-opacity="1"></use></g></g><g><use xlink:href="#b1mfonXHs6" opacity="1" fill="#ffffff" fill-opacity="1"></use><g><use xlink:href="#b1mfonXHs6" opacity="1" fill-opacity="0" stroke="#000000" stroke-width="2" stroke-opacity="1"></use></g></g><g><use xlink:href="#cFUtii1oc" opacity="1" fill="#ffffff" fill-opacity="1"></use><g><use xlink:href="#cFUtii1oc" opacity="1" fill-opacity="0" stroke="#000000" stroke-width="2" stroke-opacity="1"></use></g></g><g><use xlink:href="#b40OvUg8Z5" opacity="1" fill="#ffffff" fill-opacity="1"></use><g><use xlink:href="#b40OvUg8Z5" opacity="1" fill-opacity="0" stroke="#000000" stroke-width="2" stroke-opacity="1"></use></g></g><g><use xlink:href="#b9uMpiodc" opacity="1" fill="#ffffff" fill-opacity="1"></use><g><use xlink:href="#b9uMpiodc" opacity="1" fill-opacity="0" stroke="#000000" stroke-width="2" stroke-opacity="1"></use></g></g><g><use xlink:href="#b2xXRX7Vmy" opacity="1" fill="#ffffff" fill-opacity="1"></use><g><use xlink:href="#b2xXRX7Vmy" opacity="1" fill-opacity="0" stroke="#000000" stroke-width="2" stroke-opacity="1"></use></g></g><g><use xlink:href="#a1DamJavWs" opacity="1" fill="#ffffff" fill-opacity="1"></use><g><use xlink:href="#a1DamJavWs" opacity="1" fill-opacity="0" stroke="#000000" stroke-width="2" stroke-opacity="1"></use></g></g><g><use xlink:href="#a1Dywzjb8X" opacity="1" fill="#ffffff" fill-opacity="1"></use><g><use xlink:href="#a1Dywzjb8X" opacity="1" fill-opacity="0" stroke="#000000" stroke-width="2" stroke-opacity="1"></use></g></g><g><use xlink:href="#db7IET3LHl" opacity="1" fill="#ffffff" fill-opacity="1"></use><g><use xlink:href="#db7IET3LHl" opacity="1" fill-opacity="0" stroke="#000000" stroke-width="2" stroke-opacity="1"></use></g></g><g><use xlink:href="#anwqaZnL" opacity="1" fill="#ffffff" fill-opacity="1"></use><g><use xlink:href="#anwqaZnL" opacity="1" fill-opacity="0" stroke="#000000" stroke-width="2" stroke-opacity="1"></use></g></g><g><use xlink:href="#a534TISehJ" opacity="1" fill="#ffffff" fill-opacity="1"></use><g><use xlink:href="#a534TISehJ" opacity="1" fill-opacity="0" stroke="#000000" stroke-width="2" stroke-opacity="1"></use></g></g><g><use xlink:href="#b1h3ix9PH5" opacity="1" fill="#ffffff" fill-opacity="1"></use><g><use xlink:href="#b1h3ix9PH5" opacity="1" fill-opacity="0" stroke="#000000" stroke-width="2" stroke-opacity="1"></use></g></g><g><use xlink:href="#e8KqwZhzn" opacity="1" fill="#ffffff" fill-opacity="1"></use><g><use xlink:href="#e8KqwZhzn" opacity="1" fill-opacity="0" stroke="#000000" stroke-width="2" stroke-opacity="1"></use></g></g><g><use xlink:href="#a4hrUuQ9Rr" opacity="1" fill="#ffffff" fill-opacity="1"></use><g><use xlink:href="#a4hrUuQ9Rr" opacity="1" fill-opacity="0" stroke="#000000" stroke-width="2" stroke-opacity="1"></use></g></g><g><use xlink:href="#f2wBijP9TO" opacity="1" fill="#ffffff" fill-opacity="1"></use><g><use xlink:href="#f2wBijP9TO" opacity="1" fill-opacity="0" stroke="#000000" stroke-width="2" stroke-opacity="1"></use></g></g><g><use xlink:href="#b1mbESvAL9" opacity="1" fill="#ffffff" fill-opacity="1"></use><g><use xlink:href="#b1mbESvAL9" opacity="1" fill-opacity="0" stroke="#000000" stroke-width="2" stroke-opacity="1"></use></g></g><g><use xlink:href="#bUtqvjvLy" opacity="1" fill="#000000" fill-opacity="1"></use></g></g></g></svg>